#!OML:ASF X:\für Bonn\!DataBase\2005_08_12_Daniel\c3d\Daniel.ASF
:FULLY-SPECIFIED
:DEGREES
51
root -2.71519 17.2291 -0.420373 -3.98085 -70.3449 -27.6545
lowerback 56.0249 -12.8757 -14.2203
upperback 14.7441 -26.3743 -1.60701
thorax 0.394045 -15.2661 12.9899
lowerneck 13.4781 13.3278 -1.33936
upperneck 8.06143 16.5179 4.84241
head -0.152303 7.76716 0.984346
rclavicle -3.10104e-014 0
rhumerus -56.5562 1.67637 -67.9852
rradius 21.0441
rwrist 27.1097
rhand -29.8383 39.795
rfingers 7.12502
rthumb -3.16131 9.83871
lclavicle -3.10104e-014 0
lhumerus 51.3273 -1.62158 81.8228
lradius 129.189
lwrist 55.8849
lhand -10.9114 -13.9777
lfingers 7.12502
lthumb 15.1058 15.4511
rfemur -92.0703 -20.4412 32.0177
rtibia 131.507
rfoot 1.48581 6.52379
rtoes -11.1413
lfemur 14.8928 -15.1988 -18.8491
ltibia 29.5906
lfoot -15.8941 3.62704
ltoes 2.239
52
root -2.7108 17.2276 -0.402109 -3.56287 -70.7494 -27.9099
lowerback 55.8 -12.8131 -14.146
upperback 14.7306 -26.2327 -1.59313
thorax 0.351995 -15.1845 12.9448
lowerneck 13.448 13.314 -1.46433
upperneck 8.05376 16.4888 4.79262
head -0.155514 7.75247 0.990136
rclavicle -5.725e-014 -1.7175e-013
rhumerus -56.2977 0.893683 -67.0478
rradius 20.4456
rwrist 28.4386
rhand -30.4217 39.9733
rfingers 7.12502
rthumb -3.7247 10.0261
lclavicle -5.725e-014 -1.7175e-013
lhumerus 50.4826 -1.42736 82.2812
lradius 129.541
lwrist 55.9851
lhand -11.1708 -13.6715
lfingers 7.12502
lthumb 14.856 15.7759
rfemur -92.0743 -20.7868 32.0579
rtibia 131.402
rfoot 1.80476 6.79146
rtoes -10.3688
lfemur 14.7658 -15.1054 -18.9295
ltibia 29.7136
lfoot -16.1124 3.93665
ltoes 2.26405
53
root -2.70851 17.2222 -0.381555 -3.20057 -71.1631 -28.0466
lowerback 55.4458 -12.7614 -14.082
upperback 14.7331 -26.0886 -1.58343
thorax 0.344122 -15.1045 12.8862
lowerneck 13.3371 13.2797 -1.55281
upperneck 8.10726 16.437 4.71722
head -0.12036 7.72996 0.992341
rclavicle -7.07673e-014 -5.08889e-014
rhumerus -56.0616 0.211329 -66.2179
rradius 20.0922
rwrist 29.5711
rhand -31.0727 39.9887
rfingers 7.12502
rthumb -4.35333 10.0535
lclavicle -7.07673e-014 -5.08889e-014
lhumerus 49.7407 -1.19985 82.7936
lradius 129.812
lwrist 56.109
lhand -11.3477 -13.256
lfingers 7.12502
lthumb 14.6855 16.2039
rfemur -91.8732 -21.2078 31.9752
rtibia 131.203
rfoot 2.08896 7.22024
rtoes -9.94872
lfemur 14.5359 -15.0293 -19.0755
ltibia 29.9365
lfoot -16.3769 4.30096
ltoes 2.35634
54
root -2.70769 17.2099 -0.361152 -2.7408 -71.6018 -28.2868
lowerback 55.081 -12.6789 -14.0099
upperback 14.7248 -25.9019 -1.53335
thorax 0.332295 -15.0071 12.8553
lowerneck 13.0972 13.2079 -1.553
upperneck 8.24464 16.3488 4.59051
head -0.0252107 7.69598 0.98097
rclavicle 6.04305e-014 -2.8625e-014
rhumerus -55.7822 -0.444565 -65.4253
rradius 19.8623
rwrist 30.4092
rhand -31.7085 40.0213
rfingers 7.12502
rthumb -4.96725 10.0995
lclavicle 6.04305e-014 -2.8625e-014
lhumerus 48.997 -0.966408 83.2854
lradius 130.037
lwrist 56.2376
lhand -11.5314 -12.9335
lfingers 7.12502
lthumb 14.5085 16.5392
rfemur -91.3687 -21.5999 31.7996
rtibia 130.864
rfoot 2.37699 7.7116
rtoes -10.1841
lfemur 14.2885 -14.9629 -19.1972
ltibia 30.2089
lfoot -16.6846 4.6569
ltoes 2.44164
55
root -2.7052 17.2009 -0.340561 -2.07989 -72.0792 -28.6531
lowerback 54.6314 -12.6159 -13.9109
upperback 14.7111 -25.7083 -1.47831
thorax 0.317637 -14.9018 12.8156
lowerneck 12.7297 13.1127 -1.45552
upperneck 8.47613 16.2426 4.39468
head 0.134081 7.65888 0.948899
rclavicle 3.97569e-015 -6.36111e-015
rhumerus -55.4772 -0.868528 -64.9203
rradius 19.8962
rwrist 30.6313
rhand -32.2088 39.8794
rfingers 7.12502
rthumb -5.45032 9.96945
lclavicle 3.97569e-015 -6.36111e-015
lhumerus 48.2314 -0.626985 83.6604
lradius 130.172
lwrist 56.4287
lhand -11.5904 -12.708
lfingers 7.12502
lthumb 14.4517 16.7688
rfemur -90.6017 -21.8333 31.5215
rtibia 130.344
rfoot 2.59657 8.21451
rtoes -10.9204
lfemur 13.9564 -14.9137 -19.2889
ltibia 30.4882
lfoot -17.0075 5.05434
ltoes 2.60811
56
root -2.70042 17.1998 -0.322233 -1.34834 -72.6043 -29.0122
lowerback 54.0671 -12.5374 -13.806
upperback 14.6941 -25.4725 -1.44137
thorax 0.295253 -14.7672 12.7407
lowerneck 12.3217 12.9884 -1.28658
upperneck 8.77199 16.1019 4.21414
head 0.323572 7.6057 0.91811
rclavicle -9.38264e-014 3.81667e-014
rhumerus -55.224 -1.031 -64.7927
rradius 20.18
rwrist 30.0735
rhand -32.6187 39.7522
rfingers 7.12502
rthumb -5.8461 9.85282
lclavicle -9.38264e-014 3.81667e-014
lhumerus 47.4188 -0.333467 83.9582
lradius 130.261
lwrist 56.5841
lhand -11.6372 -12.5894
lfingers 7.12502
lthumb 14.4066 16.8906
rfemur -89.6582 -21.8926 31.1054
rtibia 129.67
rfoot 2.84455 8.68
rtoes -11.7187
lfemur 13.5586 -14.8263 -19.3671
ltibia 30.7233
lfoot -17.3045 5.50184
ltoes 2.65025
57
root -2.69372 17.2022 -0.307319 -0.491258 -73.161 -29.4518
lowerback 53.4733 -12.4606 -13.7029
upperback 14.641 -25.2302 -1.41906
thorax 0.230658 -14.6155 12.6569
lowerneck 11.9674 12.8941 -1.2423
upperneck 9.0263 15.9843 4.15217
head 0.469012 7.55719 0.932078
rclavicle 2.8625e-014 2.70347e-014
rhumerus -55.009 -0.898942 -65.0073
rradius 20.742
rwrist 28.796
rhand -32.8263 39.4968
rfingers 7.12502
rthumb -6.04652 9.60309
lclavicle 2.8625e-014 2.70347e-014
lhumerus 46.5614 -0.0115826 84.2122
lradius 130.314
lwrist 56.728
lhand -11.5979 -12.469
lfingers 7.12502
lthumb 14.4444 17.0083
rfemur -88.5509 -21.7788 30.6134
rtibia 128.865
rfoot 3.06608 9.03771
rtoes -12.4933
lfemur 13.1406 -14.7224 -19.3974
ltibia 30.8957
lfoot -17.6098 5.92063
ltoes 2.67521
58
root -2.6871 17.2075 -0.294364 0.463572 -73.7149 -29.9421
lowerback 52.802 -12.391 -13.6062
upperback 14.5964 -24.9874 -1.39348
thorax 0.19353 -14.4668 12.5677
lowerneck 11.6027 12.8089 -1.22785
upperneck 9.27468 15.8783 4.06824
head 0.613017 7.51376 0.943636
rclavicle 5.725e-014 -1.59028e-015
rhumerus -54.8015 -0.378321 -65.6426
rradius 21.6411
rwrist 26.785
rhand -32.9889 39.1336
rfingers 7.12502
rthumb -6.20348 9.24444
lclavicle 5.725e-014 -1.59028e-015
lhumerus 45.7575 0.318453 84.4516
lradius 130.318
lwrist 56.7749
lhand -11.5068 -12.3326
lfingers 7.12502
lthumb 14.5322 17.1384
rfemur -87.3185 -21.5894 30.0404
rtibia 127.937
rfoot 3.27181 9.30441
rtoes -13.2745
lfemur 12.687 -14.6192 -19.4043
ltibia 31.0215
lfoot -17.8541 6.36619
ltoes 2.70683
59
root -2.68319 17.2108 -0.281909 1.52414 -74.2963 -30.531
lowerback 52.0857 -12.3174 -13.4984
upperback 14.552 -24.7284 -1.38615
thorax 0.152517 -14.3057 12.4485
lowerneck 11.2944 12.7233 -1.24601
upperneck 9.50023 15.7659 4.01938
head 0.735531 7.46397 0.965406
rclavicle 1.82882e-014 -3.33958e-014
rhumerus -54.6401 0.258587 -66.44
rradius 22.8232
rwrist 24.4837
rhand -33.1304 38.6939
rfingers 7.12502
rthumb -6.34014 8.8088
lclavicle 1.82882e-014 -3.33958e-014
lhumerus 44.9586 0.651711 84.6392
lradius 130.287
lwrist 56.7665
lhand -11.4247 -12.2093
lfingers 7.12502
lthumb 14.6113 17.256
rfemur -85.9323 -21.3477 29.373
rtibia 126.949
rfoot 3.44802 9.43848
rtoes -13.9052
lfemur 12.2432 -14.5309 -19.4076
ltibia 31.1422
lfoot -18.1326 6.81659
ltoes 2.88747
60
root -2.68112 17.2141 -0.26949 2.65728 -74.871 -31.1752
lowerback 51.3152 -12.2629 -13.3707
upperback 14.5004 -24.4728 -1.38951
thorax 0.107161 -14.141 12.3083
lowerneck 11.0364 12.6389 -1.27953
upperneck 9.69461 15.6549 3.9536
head 0.840945 7.41327 0.979767
rclavicle -7.95139e-016 -3.33958e-014
rhumerus -54.4802 0.878821 -67.2302
rradius 24.182
rwrist 22.2404
rhand -33.3405 38.192
rfingers 7.12502
rthumb -6.54294 8.31303
lclavicle -7.95139e-016 -3.33958e-014
lhumerus 44.1614 0.942169 84.7961
lradius 130.219
lwrist 56.6382
lhand -11.3022 -12.1722
lfingers 7.12502
lthumb 14.7294 17.2845
rfemur -84.3846 -21.1003 28.5961
rtibia 125.913
rfoot 3.56057 9.50764
rtoes -14.3049
lfemur 11.7737 -14.4352 -19.4032
ltibia 31.285
lfoot -18.4321 7.27577
ltoes 2.93877
61
root -2.68139 17.2167 -0.257738 3.82424 -75.4393 -31.8699
lowerback 50.5227 -12.2203 -13.2306
upperback 14.4646 -24.2262 -1.41533
thorax 0.0786409 -13.9816 12.1354
lowerneck 10.7295 12.5568 -1.34122
upperneck 9.92725 15.5431 3.9151
head 0.96166 7.36123 1.01062
rclavicle -1.27222e-014 2.22639e-014
rhumerus -54.2018 1.25385 -67.8738
rradius 25.5714
rwrist 20.3947
rhand -33.6394 37.7202
rfingers 7.12502
rthumb -6.83149 7.85039
lclavicle -1.27222e-014 2.22639e-014
lhumerus 43.3754 1.2283 84.8762
lradius 130.128
lwrist 56.4422
lhand -11.2925 -12.1532
lfingers 7.12502
lthumb 14.7387 17.3028
rfemur -82.6966 -20.9054 27.7874
rtibia 124.82
rfoot 3.6166 9.51685
rtoes -14.5328
lfemur 11.3184 -14.368 -19.4162
ltibia 31.4543
lfoot -18.7487 7.7262
ltoes 3.02909
62
root -2.68463 17.2169 -0.246251 5.07588 -75.9843 -32.6816
lowerback 48.8194 -12.2933 -13.0518
upperback 15.412 -23.8981 -2.09435
thorax 0.127819 -13.8222 12.0888
lowerneck 10.483 12.4756 -1.35681
upperneck 10.1374 15.4382 3.81705
head 1.07484 7.31245 1.01283
rclavicle 2.62396e-014 -1.59028e-014
rhumerus -53.8269 1.51042 -68.4226
rradius 27.0078
rwrist 18.8386
rhand -33.9684 37.3247
rfingers 7.12502
rthumb -7.14904 7.46545
lclavicle 2.62396e-014 -1.59028e-014
lhumerus 42.5927 1.54036 84.9059
lradius 130.015
lwrist 56.1762
lhand -11.3091 -12.0787
lfingers 7.12502
lthumb 14.7227 17.3784
rfemur -80.8369 -20.6993 26.9822
rtibia 123.639
rfoot 3.5949 9.42189
rtoes -14.7219
lfemur 10.895 -14.3577 -19.4348
ltibia 31.6399
lfoot -19.1178 8.20268
ltoes 3.13152
63
root -2.68994 17.2172 -0.235083 6.3204 -76.5532 -33.4339
lowerback 47.9859 -12.2434 -12.9129
upperback 15.3229 -23.6448 -2.09822
thorax 0.117576 -13.6567 11.8806
lowerneck 10.2719 12.3726 -1.32087
upperneck 10.3081 15.313 3.68344
head 1.17753 7.25492 0.994136
rclavicle 2.3059e-014 -1.27222e-014
rhumerus -53.4245 1.62334 -68.9678
rradius 28.5474
rwrist 17.5225
rhand -34.3131 37.0098
rfingers 7.12502
rthumb -7.48182 7.16206
lclavicle 2.3059e-014 -1.27222e-014
lhumerus 41.8209 1.79096 84.8436
lradius 129.879
lwrist 55.8847
lhand -11.4344 -12.074
lfingers 7.12502
lthumb 14.602 17.392
rfemur -78.9502 -20.4152 26.1566
rtibia 122.377
rfoot 3.55471 9.29496
rtoes -14.6246
lfemur 10.4267 -14.3205 -19.4807
ltibia 31.8244
lfoot -19.4729 8.69574
ltoes 3.2544
64
root -2.69614 17.219 -0.22443 7.74065 -77.0952 -34.38
lowerback 47.148 -12.2122 -12.7598
upperback 15.2422 -23.4104 -2.09653
thorax 0.127806 -13.5048 11.6711
lowerneck 10.0594 12.2835 -1.31059
upperneck 10.4781 15.2056 3.52919
head 1.27979 7.20474 0.972274
rclavicle -1.75726e-013 -3.97569e-014
rhumerus -52.9322 1.79144 -69.5738
rradius 30.1446
rwrist 16.2802
rhand -34.5893 36.8398
rfingers 7.12502
rthumb -7.74838 7.00175
lclavicle -1.75726e-013 -3.97569e-014
lhumerus 41.0521 2.11628 84.7126
lradius 129.728
lwrist 55.5685
lhand -11.5374 -12.035
lfingers 7.12502
lthumb 14.5028 17.4382
rfemur -76.9324 -20.0724 25.3489
rtibia 120.988
rfoot 3.48682 9.09399
rtoes -14.573
lfemur 9.98634 -14.316 -19.5001
ltibia 32.0024
lfoot -19.8451 9.18913
ltoes 3.32146
65
root -2.70417 17.2209 -0.214674 9.17776 -77.6513 -35.3429
lowerback 46.2853 -12.176 -12.6286
upperback 15.138 -23.1767 -2.09616
thorax 0.131732 -13.3503 11.4669
lowerneck 9.92752 12.2099 -1.34998
upperneck 10.6286 15.1124 3.3562
head 1.36118 7.15741 0.945196
rclavicle -4.53229e-014 -1.24042e-013
rhumerus -52.4611 2.0643 -70.2593
rradius 31.84
rwrist 15.0033
rhand -34.7715 36.8311
rfingers 7.12502
rthumb -7.92426 6.99958
lclavicle -4.53229e-014 -1.24042e-013
lhumerus 40.2108 2.42676 84.5518
lradius 129.585
lwrist 55.2604
lhand -11.6559 -12.0155
lfingers 7.12502
lthumb 14.3886 17.4658
rfemur -74.8683 -19.6695 24.5351
rtibia 119.516
rfoot 3.4503 8.87704
rtoes -14.6313
lfemur 9.56581 -14.3027 -19.5409
ltibia 32.1542
lfoot -20.2185 9.68686
ltoes 3.36783
